<?xml version="1.0" encoding="UTF-8"?> <svg xmlns="http://www.w3.org/2000/svg" xmlns:xlink="http://www.w3.org/1999/xlink" xmlns:svgjs="http://svgjs.com/svgjs" id="SvgjsSvg1001" version="1.1" viewBox="0 113.18 288 61.63"><defs id="SvgjsDefs1002"></defs><g id="SvgjsG1008"><svg xmlns="http://www.w3.org/2000/svg" viewBox="0 0 532.1 113.87" width="288" height="288"><defs><clipPath id="a"><rect width="532.1" height="113.87" fill="none"></rect></clipPath></defs><g clip-path="url(#a)" fill="#000000" class="color000 svgShape"><path fill="#000000" d="M476.66,93.09c-4.18,0-7.91-.3-10.61-1.49-2.54-1.19-4.19-3.29-4.63-6.58h-34.75v-14c4.35,3.6,11,5.96,20.85,6.98l36.46,3.74c3.88,.44,5.07,2.69,5.07,5.07,0,3.74-2.84,6.28-12.4,6.28m-299.33-16.13c0,14.04-13.9,17.18-26.45,17.18-9.26,0-13.89-3.58-13.89-9.26,0-5.23,3.28-7.47,10.16-8.07,13.3-1.19,23.91-2.09,30.19-3.44v3.59Zm-70.93-9.39v-9c0-1.73-.12-3.36-.29-4.93h34.16c1.79-7.92,10.32-9.27,18.83-9.27,10.61,0,17.33,2.54,17.33,7.93,0,4.48-2.54,6.27-10.01,6.72l-31.53,1.49c-13.11,.57-22.35,3.04-28.49,7.05m397.91-7.66l-35.57-3.13c-8.07-.75-10.02-3-10.02-5.09,0-3.14,2.1-5.68,13.3-5.68,5.53,0,8.97,.89,11.06,2.1,2.1,1.19,2.84,2.99,2.84,5.07h42.15c-.75-23.16-28.69-27.79-54.1-27.79-23.28,0-38.97,3.37-47.3,10.81V0h-37.36V37.96h-.3c-6.42-7.77-17.18-11.51-32.43-11.51-17.83,0-34.59,7.26-42.19,23.21-3.58-16.34-17.51-23.21-35.23-23.21s-29.89,7.17-33.78,12.4h-.29v-10.16h-36.16v9.94c-7.44-9.38-22.47-13.08-47.44-13.08-19.73,0-33.32,1.51-42.44,5.68-7.26,3.39-11.65,8.38-14.3,15.75-4.5-14.32-17.84-20.39-34.51-20.39-17.93,0-28.99,7.18-32.58,12.4h-.3V.15H0V110.58H37.36v-37.66c0-13.6,7.47-19.42,17.34-19.42,8.81,0,14.34,4.48,14.34,14.79v42.29h37.35v-3.58c7.12,4.93,17.82,6.87,31.18,6.87,19.88,0,32.57-3.58,40.94-11.36,.16,2.99,.6,5.68,1.35,8.07h38.25s-.06-.11-.09-.15h28.25v-37.66c0-13.6,7.47-19.43,17.33-19.43,8.82,0,14.35,4.48,14.35,14.79v42.29h37.36v-18.13c7.97,14.69,24.11,21.41,41.26,21.41,2.68,0,5.15-.14,7.51-.36-.04-.02-.08-.03-.11-.05-4.42-2.72-7-6.2-8.29-8.21-.94-1.47-2.4-3.32-3.47-4.52-1.62-1.6-4.65-3.93-8.08-4.84-6.78-2.37-7.45-1.79-14.13-4.23-1.19-.43-3.66-.85-5.27-1.35-3.85-1.64-6.62-2.71-5.96-5.53,.68-2.96,2.93-2.2,5.53-1.65,3.82,.79,3.27,.94,7.1,1.94,2.52,.64,4.73,.81,7.26,1.36,1.93,.22,3.77,.41,5.44,.8,1.56,.35,3.11-.8,3.01-1.22-.14-.56-1.45-1.22-2.35-1.79-2.85-1.83-8.15-4.15-9.37-4.72-3.41-1.61-3.93-2.72-7.21-4.41-2.22-1.14-5.34-2.65-7.86-4.2-3.04-1.87-5.26-3.44-3.5-6.73,2.05-3.78,9.29,2.25,13.12,3.8,5.17,2.12,7.09,2.67,11.39,4.82,3.42,1.69,6.64,3.99,9.34,3.26,.93-.25,.9-1.66,.9-1.66-.9-1.9-5.48-5.04-8.09-8.43-5.02-6.47-3.69-3.9-8.07-9.6-1.85-2.39-12.45-10.04-6.9-13.48,4.56-2.82,9.05,4.87,12.17,7.93,1.76,1.72,6.38,5.7,8.58,8.34,1.52,1.79,3.35,2.69,8.82,8.73,0,0,1.54,1.22,2.49,.05,.63-.77,.96-1.17,.42-3.13-1.08-3.93-2.84-5.79-4.39-10.04-1.71-2.84-2.92-6.58-4.11-8.8-1.87-3.09-8.04-11.63-3.85-13.83,4.44-2.34,8.18,7.1,10.29,10.16,2.85,4.13,3.93,5.23,5.9,8.7,2.65,4.68,5.01,10.49,8.55,15.34,.87,1.4,1.64,2.91,2.59,4.1,2.95,3.67,6.23,6.85,9.53,6.42,1.27-.16,2.89-1.74,3.77-2.58,1.79-2.97,2.57-6.43,3.11-9.14,.82-4.06,3.11-10.47,7.7-12.15,.72-.26,2.44-.68,3.47,.75,.21,.31,.47,1.86-1.49,6.24-.31,.96-.58,2.33-.84,6.02-.09,1.31-.7,2.1-.93,3.25-.26,2.52-.93,5.27-1.2,7.7-.4,3.79,.15,5.62-1.54,10.8-2.11,6.44-.26,8.01-4.18,15.43-1.8,3.41-2.69,5.49-2.83,7.4h36.13v-6.6c8.82,6.9,24.24,9.88,47.75,9.88,39.45,0,57.68-8.07,57.68-29.14,0-13.89-7.63-22.85-27.79-24.66" class="color231f20 svgShape"></path></g></svg></g></svg> 